<?xml version="1.0"?>
<svg viewBox="0 0 40 40" xmlns="http://www.w3.org/2000/svg" xmlns:svg="http://www.w3.org/2000/svg" version="1.1">
 <defs>
  <clipPath id="clip1">
   <path d="m0,6.23l76.62,0l0,41.54l-76.62,0l0,-41.54zm0,0" id="svg_1"/>
  </clipPath>
  <clipPath id="clip2">
   <path d="m87.4,0l51.6,0l0,54l-51.6,0l0,-54zm0,0" id="svg_2"/>
  </clipPath>
 </defs>
 <g class="layer">
  <title>Layer 1</title>
  <path d="m12.55,2.11c0.19,-0.08 0.42,-0.17 0.64,-0.25c0.19,-0.09 0.41,-0.17 0.63,-0.23c0.44,-0.15 0.85,-0.3 1.3,-0.4c-3.74,0.93 -7.26,3.01 -9.84,5.93c-0.64,0.74 -1.25,1.5 -1.78,2.31c-0.52,0.82 -0.98,1.67 -1.39,2.55c-0.37,0.89 -0.7,1.79 -0.97,2.72c-0.26,0.93 -0.41,1.88 -0.54,2.83c-0.44,3.82 0.34,7.74 2.16,11.09c1.79,3.35 4.57,6.14 7.81,8.01c0.19,0.13 0.43,0.27 0.72,0.44c0.28,0.17 0.59,0.34 0.9,0.51c0.63,0.33 1.29,0.63 1.72,0.8c0.43,0.17 0.92,0.3 1.38,0.45c0.48,0.12 0.96,0.25 1.46,0.33c0.99,0.2 2.04,0.32 3.09,0.36c1.05,0.04 2.12,0 3.19,-0.11c1.07,-0.1 2.14,-0.32 3.17,-0.61c2.1,-0.57 4.07,-1.5 5.82,-2.64c0.88,-0.57 1.68,-1.2 2.43,-1.86c0.74,-0.67 1.39,-1.37 2.01,-2.08c1.21,-1.45 1.86,-2.97 2.19,-4.07c0.08,-0.27 0.15,-0.53 0.19,-0.74c0.04,-0.21 0.09,-0.4 0.11,-0.57c0.04,-0.31 0.06,-0.48 0.06,-0.48c0.11,-0.44 0.13,-0.89 0.11,-1.13c-0.04,-0.23 -0.15,-0.27 -0.35,0.1c-0.15,0.4 -0.37,0.95 -0.65,1.54c-0.15,0.3 -0.28,0.59 -0.46,0.89c-0.09,0.14 -0.18,0.29 -0.25,0.44c-0.08,0.14 -0.17,0.27 -0.26,0.42c-0.7,1.1 -1.44,1.88 -1.55,1.79c-0.01,-0.02 0.09,-0.19 0.26,-0.46c0.09,-0.13 0.2,-0.27 0.31,-0.44c0.11,-0.17 0.22,-0.34 0.35,-0.53c-0.13,-0.09 0.02,-0.72 0.19,-1.44c0.04,-0.17 0.09,-0.35 0.13,-0.54c0.04,-0.2 0.08,-0.36 0.13,-0.53c0.09,-0.34 0.17,-0.64 0.24,-0.8c0.04,-0.2 0.16,-0.63 0.26,-1.2c0.04,-0.27 0.11,-0.59 0.16,-0.93c0.04,-0.33 0.08,-0.67 0.1,-1.01c0.02,-0.17 0.02,-0.33 0.04,-0.51c0,-0.17 0,-0.34 0.02,-0.51c0.02,-0.31 0,-0.63 -0.02,-0.9c0,-0.27 -0.02,-0.53 -0.04,-0.72c-0.02,-0.21 -0.04,-0.36 -0.07,-0.45c-0.06,-0.59 -0.17,-0.59 -0.3,-0.21c-0.16,0.38 -0.31,1.1 -0.57,1.94c-0.26,0.84 -0.64,1.81 -1.05,2.67c-0.42,0.89 -0.9,1.68 -1.27,2.28c-0.39,0.59 -0.48,0.53 -0.48,0.34c0,-0.2 0.04,-0.55 -0.04,-0.59c-0.07,0.14 -0.13,0.3 -0.22,0.42c-0.06,0.13 -0.15,0.25 -0.22,0.36c-0.15,0.23 -0.31,0.44 -0.46,0.63c-0.31,0.4 -0.65,0.78 -1.05,1.31c-0.02,-0.02 -0.19,0.17 -0.48,0.46c-0.16,0.15 -0.33,0.32 -0.53,0.48c-0.21,0.17 -0.41,0.38 -0.67,0.57c-0.48,0.4 -1.05,0.8 -1.62,1.16c-0.28,0.17 -0.57,0.34 -0.83,0.49c-0.26,0.14 -0.52,0.27 -0.74,0.38c0,0 -0.13,0.11 -0.52,0.27c-0.08,0.04 -0.19,0.11 -0.33,0.15c-0.13,0.04 -0.28,0.1 -0.43,0.17c-0.15,0.07 -0.35,0.12 -0.55,0.19c-0.1,0.04 -0.19,0.07 -0.33,0.11c-0.1,0.01 -0.24,0.06 -0.34,0.1c-0.33,0.09 -0.49,0.15 -0.57,0.2c-0.09,0.04 -0.07,0.08 -0.07,0.1c-0.02,-0.07 -0.02,-0.07 -0.04,-0.14c-0.3,0.14 -0.83,0.25 -1.33,0.29c-0.5,0.07 -1.03,0.09 -1.37,0.13l0,-0.14c-0.35,0.04 -0.68,0.08 -1.03,0.06c-0.17,0 -0.34,0 -0.52,-0.01l-0.5,-0.04c-0.67,-0.09 -1.36,-0.2 -2.03,-0.32c0.02,-0.07 0.02,-0.07 0.04,-0.15c-0.66,-0.14 -1.31,-0.35 -1.27,-0.42l0.04,-0.13c-0.3,-0.12 -0.79,-0.29 -1.15,-0.44c-0.19,-0.08 -0.37,-0.14 -0.48,-0.21c-0.11,-0.07 -0.18,-0.12 -0.18,-0.14c-0.04,0.06 -0.04,0.06 -0.06,0.12c-0.61,-0.27 -1.14,-0.61 -1.64,-0.93c-0.49,-0.34 -0.94,-0.67 -1.33,-1.03c-0.81,-0.69 -1.47,-1.43 -2.03,-2.23c-0.37,-0.53 -0.73,-1.1 -1.03,-1.71c-0.3,-0.61 -0.58,-1.22 -0.82,-1.9c-0.25,-0.65 -0.44,-1.35 -0.58,-2.05c-0.15,-0.69 -0.21,-1.43 -0.25,-2.15c-0.04,-0.74 0,-1.47 0.06,-2.22c0.07,-0.74 0.22,-1.47 0.42,-2.17c0.19,-0.72 0.46,-1.41 0.76,-2.09c0.31,-0.67 0.67,-1.3 1.07,-1.92c0.37,-0.53 0.7,-1.12 0.15,-0.69c0.42,-0.53 0.85,-1.01 1.33,-1.47c0.24,-0.23 0.4,-0.38 0.49,-0.48c0.08,-0.11 0.15,-0.2 0.19,-0.25c0.08,-0.15 0.17,-0.3 0.72,-0.72c2.14,-1.69 4.81,-2.72 7.59,-2.99c2.78,-0.27 5.62,0.25 8.12,1.45c2.49,1.2 4.61,3.09 6.08,5.37c1.46,2.28 2.27,4.94 2.34,7.63c0.02,-1.35 -0.09,-2.53 -0.35,-3.69c-0.28,-1.16 -0.7,-2.3 -1.42,-3.46c0.07,-0.04 0.2,-0.1 -0.17,-0.69c-0.55,-0.89 -1.24,-1.75 -2.01,-2.53c-0.76,-0.78 -1.62,-1.45 -2.47,-2c-1.7,-1.13 -3.39,-1.75 -4.39,-2.17c-0.33,-0.13 -0.68,-0.27 -1.21,-0.46c-0.52,-0.15 -1.24,-0.34 -2.36,-0.4c0.74,0.04 1.49,0.11 2.21,0.25c0.02,-0.07 0.04,-0.21 0.04,-0.21c-1.47,-0.32 -3.17,-0.42 -4.88,-0.27c-1.71,0.15 -3.37,0.57 -4.77,1.14c0,0 -0.07,-0.13 -0.08,-0.2c-0.49,0.2 -0.94,0.43 -1.38,0.66c-0.2,0.04 -0.27,0 -0.2,-0.09c0.07,-0.09 0.22,-0.23 0.51,-0.4c0.54,-0.36 1.48,-0.82 2.66,-1.2c1.16,-0.4 2.56,-0.68 3.92,-0.77c1.36,-0.1 2.64,-0.04 3.63,0.09c0,-0.07 0.02,-0.21 0.04,-0.3c-0.52,-0.08 -1.07,-0.1 -1.62,-0.14l0,-0.14c2.45,0.1 4.66,0.67 6.69,1.6c2.03,0.93 3.89,2.21 5.56,3.94c-0.13,-0.14 -0.33,-0.31 -0.51,-0.52c-0.19,-0.2 -0.41,-0.4 -0.63,-0.59c-0.24,-0.2 -0.46,-0.38 -0.68,-0.57c-0.22,-0.17 -0.41,-0.32 -0.58,-0.44c0.04,-0.07 0.09,-0.12 -0.57,-0.57c1.36,0.91 2.74,2.11 3.87,3.52c0.28,0.34 0.55,0.72 0.83,1.08c0.24,0.38 0.5,0.74 0.72,1.12c0.46,0.76 0.85,1.5 1.18,2.23c0.19,0.36 0.26,0.34 0.17,-0.06c-0.04,-0.19 -0.1,-0.51 -0.26,-0.89c-0.13,-0.38 -0.34,-0.84 -0.63,-1.39c-0.61,-1.06 -1.23,-1.89 -1.9,-2.68c-0.68,-0.77 -1.42,-1.51 -2.38,-2.29l0.09,-0.11c0.65,0.53 1.42,1.24 2.1,2.02c0.7,0.78 1.31,1.6 1.79,2.3c0.26,0.33 0.09,-0.04 -0.11,-0.43c-0.08,-0.19 -0.19,-0.38 -0.24,-0.46c-0.04,-0.1 -0.02,-0.1 0.11,0.04c0.48,0.7 0.94,1.39 1.37,2.13c-0.58,-1.12 -1.39,-2.36 -2.38,-3.48c-0.98,-1.11 -2.1,-2.1 -3.1,-2.91c-0.32,-0.27 -0.65,-0.55 -0.9,-0.76c-0.24,-0.21 -0.41,-0.36 -0.37,-0.42c-1.9,-1.08 -3.74,-1.81 -5.44,-2.3c-1.79,-0.44 -3.35,-0.74 -4.71,-0.91c-0.43,-0.06 -1.81,-0.08 -3.39,0.2c-0.19,0.04 -0.39,0.07 -0.59,0.1c-0.19,0.04 -0.39,0.09 -0.61,0.13c-0.42,0.08 -0.81,0.21 -1.21,0.32c-0.79,0.25 -1.53,0.52 -2.14,0.8" fill="rgb(38.818359%,7.835388%,65.818787%)" fill-rule="nonzero" id="svg_6"/>
 </g>
</svg>